<?xml version="1.0"?>
<svg width="984" height="152" xmlns="http://www.w3.org/2000/svg" xmlns:svg="http://www.w3.org/2000/svg" preserveAspectRatio="xMidYMid meet" version="1.0">
 <g class="layer">
  <title>Layer 1</title>
  <g fill="#000000" id="svg_1" transform="matrix(0.1 0 0 -0.1 0 0)">
   <path d="m360,-442l0,-183l83,-68l82,-67l3,52c3,51 2,54 -37,89l-41,37l0,116l0,116l40,0l40,0l0,45l0,45l-85,0l-85,0l0,-182z" fill="#ffffff" id="svg_2" stroke="#ffffff"/>
   <path d="m611,-547l0,-288l134,-110c74,-60 135,-112 135,-115c0,-3 -45,-45 -99,-95c-55,-49 -100,-98 -100,-107c-1,-15 -10,-18 -51,-18l-50,0l0,-45l0,-45l355,0l355,0l0,45l0,45l-50,0c-36,0 -50,4 -50,14c0,8 -45,56 -100,106c-55,51 -100,96 -100,99c0,4 59,56 130,116l130,108l0,289l0,288l-320,0l-320,0l1,-287zm559,-23l0,-219l-116,-97c-135,-113 -108,-114 -256,10l-97,81l0,223l-1,222l235,0l235,0l0,-220zm-151,-642l71,-68l-157,0l-158,1l75,69c41,38 80,69 86,67c7,-1 44,-32 83,-69z" fill="#ffffff" id="svg_3" stroke="#ffffff" transform="matrix(1 0 0 1 0 0)"/>
   <path d="m1330,-305l0,-45l45,0l45,0l0,-118l0,-117l-45,-35c-43,-34 -44,-36 -45,-93l0,-58l90,73l90,73l0,183l0,182l-90,0l-90,0l0,-45z" fill="#ffffff" id="svg_4" stroke="#ffffff" transform="matrix(1 0 0 1 0 0)"/>
   <path d="m3113,-315c-40,-28 -36,-102 9,-126c84,-45 169,50 103,116c-28,29 -79,33 -112,10z" fill="#ffffff" id="svg_5" stroke="#ffffff"/>
   <path d="m3375,-353c-3,-6 -4,-170 -3,-362l3,-350l68,-3l67,-3l0,366l0,365l-65,0c-43,0 -67,-4 -70,-13z" fill="#ffffff" id="svg_6" stroke="#ffffff"/>
   <path d="m4048,-442c2,-55 1,-112 -2,-124l-6,-23l-44,30c-52,37 -148,50 -211,29c-53,-17 -114,-76 -141,-135c-28,-60 -33,-178 -9,-245c56,-160 259,-224 374,-119l31,28l6,-24c3,-13 3,-29 -1,-34c-4,-8 19,-11 69,-11l76,0l0,365l0,365l-72,0l-73,0l3,-102zm-62,-223c60,-39 79,-158 36,-226c-81,-131 -269,-61 -265,98c3,130 123,197 229,128z" fill="#ffffff" id="svg_7" stroke="#ffffff"/>
   <path d="m8110,-705l0,-365l70,0l69,0l3,111l3,111l88,-111l89,-111l90,0l90,0l-88,98c-48,53 -103,113 -122,133l-34,37l109,123c59,68 114,132 122,142c13,16 8,17 -75,17l-89,-1l-90,-115l-90,-115l-3,205l-2,206l-70,0l-70,0l0,-365z" fill="#ffffff" id="svg_8" stroke="#ffffff"/>
   <path d="m1807,-387c-4,-3 -7,-159 -7,-345l0,-338l179,0c188,0 223,6 279,47c43,32 62,72 62,132c0,68 -24,113 -76,146l-44,28l28,17c65,40 93,112 72,188c-14,55 -76,107 -142,121c-53,12 -341,15 -351,4zm339,-137c13,-15 24,-39 24,-54c0,-63 -53,-92 -167,-92l-63,0l0,91l0,91l91,-4c85,-4 94,-6 115,-32zm-26,-259c25,-8 40,-23 53,-49c16,-33 17,-40 3,-71c-20,-49 -41,-57 -145,-57l-91,0l0,95l0,95l73,-1c39,0 88,-5 107,-12z" fill="#ffffff" id="svg_9" stroke="#ffffff"/>
   <path d="m4300,-725l0,-345l70,0l70,0l2,216l3,216l89,-216l89,-217l55,3l55,3l83,200c45,110 87,207 93,215c7,10 10,-51 10,-202l1,-218l65,0l65,0l0,345l0,346l-77,-3l-76,-3l-103,-240c-56,-132 -106,-246 -111,-254c-6,-9 -43,66 -118,243l-110,256l-77,0l-78,0l0,-345z" fill="#ffffff" id="svg_10" stroke="#ffffff"/>
   <path d="m5800,-724l0,-346l183,0c180,0 184,0 238,27c42,22 59,38 77,73c47,95 12,203 -80,241l-30,12l36,19c52,27 76,71 76,139c0,72 -27,115 -95,149c-47,23 -62,25 -227,28l-178,4l0,-346zm309,223c37,-13 51,-35 51,-79c0,-68 -37,-90 -156,-90l-74,0l0,90l0,90l74,0c40,0 87,-5 105,-11zm-10,-275c47,-10 81,-46 81,-88c0,-77 -31,-96 -160,-96l-90,0l0,88c0,49 3,92 7,95c8,9 120,9 162,1z" fill="#ffffff" id="svg_11" stroke="#ffffff"/>
   <path d="m9330,-455l0,-65l-35,0l-35,0l0,-60l0,-60l35,0l35,0l0,-161c0,-187 9,-218 71,-249c28,-15 59,-20 114,-20l75,0l0,54l0,55l-52,3c-72,4 -78,18 -78,185l0,132l63,3l62,3l0,55l0,55l-62,3l-63,3l0,64l0,65l-65,0l-65,0l0,-65z" fill="#ffffff" id="svg_12" stroke="#ffffff"/>
   <path d="m2440,-718c0,-191 1,-200 25,-248c31,-62 70,-92 140,-107c63,-13 128,0 175,33c36,26 40,25 40,-5c0,-24 2,-25 68,-25l67,0l-2,273l-2,272l-63,0l-63,0l-5,-181c-5,-189 -7,-196 -55,-236c-23,-20 -92,-24 -129,-6c-55,24 -61,47 -64,246l-4,182l-64,0l-64,0l0,-198z" fill="#ffffff" id="svg_13" stroke="#ffffff"/>
   <path d="m3107,-527c-4,-3 -7,-127 -7,-275l0,-268l65,0l65,0l0,275l0,275l-58,0c-32,0 -62,-3 -65,-7z" fill="#ffffff" id="svg_14" stroke="#ffffff"/>
   <path d="m5133,-532c3,-7 53,-129 111,-271l107,-258l-56,-126c-30,-70 -55,-130 -55,-135c0,-5 32,-8 71,-6l71,3l163,388c90,213 166,394 169,402c4,12 -7,15 -68,15l-73,0l-67,-182c-38,-101 -72,-187 -75,-191c-4,-4 -39,77 -77,180l-69,188l-79,3c-61,2 -77,0 -73,-10z" fill="#ffffff" id="svg_15" stroke="#ffffff"/>
   <path d="m6440,-795l0,-275l64,0l64,0l4,168c3,184 8,200 64,227c18,8 48,15 68,15l36,0l0,70c0,65 -1,70 -22,70c-30,0 -107,-39 -121,-61c-18,-29 -27,-23 -27,21l0,40l-65,0l-65,0l0,-275z" fill="#ffffff" id="svg_16" stroke="#ffffff"/>
   <path d="m6937,-546c-138,-72 -180,-290 -83,-432c80,-115 252,-137 349,-45l27,27l0,-37l0,-37l70,0l70,0l0,275l0,276l-67,-3l-68,-3l-3,-39c-3,-36 -4,-37 -17,-19c-44,63 -191,83 -278,37zm251,-137c32,-33 36,-43 40,-100c7,-101 -39,-165 -124,-175c-118,-13 -198,114 -146,231c28,64 71,89 140,84c45,-3 59,-9 90,-40z" fill="#ffffff" id="svg_17" stroke="#ffffff"/>
   <path d="m7625,-544c-57,-26 -99,-70 -128,-135c-16,-36 -19,-60 -15,-135c3,-78 8,-99 32,-139c52,-91 140,-133 256,-125c72,6 131,31 171,75c28,29 59,84 59,103c0,6 -29,10 -74,10c-66,0 -75,-2 -81,-20c-10,-31 -49,-52 -99,-52c-90,0 -130,58 -124,178c4,85 24,121 82,143c50,19 111,1 134,-40c16,-28 20,-29 91,-29l73,0l-7,28c-14,59 -77,124 -143,148c-62,22 -169,17 -227,-10z" fill="#ffffff" id="svg_18" stroke="#ffffff"/>
   <path d="m8805,-544c-105,-48 -150,-134 -143,-274c3,-74 9,-96 31,-135c49,-83 131,-127 237,-127c97,0 176,40 224,115c39,60 36,65 -42,65c-61,0 -69,-3 -95,-29c-68,-72 -188,-40 -216,57l-10,32l205,0l204,0l0,48c0,112 -51,201 -142,246c-71,36 -180,37 -253,2zm215,-122c16,-16 32,-41 35,-56l7,-28l-131,0c-144,0 -148,2 -115,59c27,46 62,62 122,58c43,-3 59,-9 82,-33z" fill="#ffffff" id="svg_19" stroke="#ffffff"/>
  </g>
 </g>
</svg>