<?xml version="1.0" standalone="no"?>
<!DOCTYPE svg PUBLIC "-//W3C//DTD SVG 20010904//EN"
 "http://www.w3.org/TR/2001/REC-SVG-20010904/DTD/svg10.dtd">
<svg version="1.0" xmlns="http://www.w3.org/2000/svg"
 width="984.000000pt" height="152.000000pt" viewBox="0 0 984.000000 152.000000"
 preserveAspectRatio="xMidYMid meet">

<g transform="translate(0.000000,152.000000) scale(0.100000,-0.100000)"
fill="#000000" stroke="none">
<path d="M360 1078 l0 -183 83 -68 82 -67 3 52 c3 51 2 54 -37 89 l-41 37 0
116 0 116 40 0 40 0 0 45 0 45 -85 0 -85 0 0 -182z"/>
<path d="M611 973 l0 -288 134 -110 c74 -60 135 -112 135 -115 0 -3 -45 -45
-99 -95 -55 -49 -100 -98 -100 -107 -1 -15 -10 -18 -51 -18 l-50 0 0 -45 0
-45 355 0 355 0 0 45 0 45 -50 0 c-36 0 -50 4 -50 14 0 8 -45 56 -100 106 -55
51 -100 96 -100 99 0 4 59 56 130 116 l130 108 0 289 0 288 -320 0 -320 0 1
-287z m559 -23 l0 -219 -116 -97 c-135 -113 -108 -114 -256 10 l-97 81 0 223
-1 222 235 0 235 0 0 -220z m-151 -642 l71 -68 -157 0 -158 1 75 69 c41 38 80
69 86 67 7 -1 44 -32 83 -69z"/>
<path d="M1330 1215 l0 -45 45 0 45 0 0 -118 0 -117 -45 -35 c-43 -34 -44 -36
-45 -93 l0 -58 90 73 90 73 0 183 0 182 -90 0 -90 0 0 -45z"/>
<path d="M3113 1205 c-40 -28 -36 -102 9 -126 84 -45 169 50 103 116 -28 29
-79 33 -112 10z"/>
<path d="M3375 1167 c-3 -6 -4 -170 -3 -362 l3 -350 68 -3 67 -3 0 366 0 365
-65 0 c-43 0 -67 -4 -70 -13z"/>
<path d="M4048 1078 c2 -55 1 -112 -2 -124 l-6 -23 -44 30 c-52 37 -148 50
-211 29 -53 -17 -114 -76 -141 -135 -28 -60 -33 -178 -9 -245 56 -160 259
-224 374 -119 l31 28 6 -24 c3 -13 3 -29 -1 -34 -4 -8 19 -11 69 -11 l76 0 0
365 0 365 -72 0 -73 0 3 -102z m-62 -223 c60 -39 79 -158 36 -226 -81 -131
-269 -61 -265 98 3 130 123 197 229 128z"/>
<path d="M8110 815 l0 -365 70 0 69 0 3 111 3 111 88 -111 89 -111 90 0 90 0
-88 98 c-48 53 -103 113 -122 133 l-34 37 109 123 c59 68 114 132 122 142 13
16 8 17 -75 17 l-89 -1 -90 -115 -90 -115 -3 205 -2 206 -70 0 -70 0 0 -365z"/>
<path d="M1807 1133 c-4 -3 -7 -159 -7 -345 l0 -338 179 0 c188 0 223 6 279
47 43 32 62 72 62 132 0 68 -24 113 -76 146 l-44 28 28 17 c65 40 93 112 72
188 -14 55 -76 107 -142 121 -53 12 -341 15 -351 4z m339 -137 c13 -15 24 -39
24 -54 0 -63 -53 -92 -167 -92 l-63 0 0 91 0 91 91 -4 c85 -4 94 -6 115 -32z
m-26 -259 c25 -8 40 -23 53 -49 16 -33 17 -40 3 -71 -20 -49 -41 -57 -145 -57
l-91 0 0 95 0 95 73 -1 c39 0 88 -5 107 -12z"/>
<path d="M4300 795 l0 -345 70 0 70 0 2 216 3 216 89 -216 89 -217 55 3 55 3
83 200 c45 110 87 207 93 215 7 10 10 -51 10 -202 l1 -218 65 0 65 0 0 345 0
346 -77 -3 -76 -3 -103 -240 c-56 -132 -106 -246 -111 -254 -6 -9 -43 66 -118
243 l-110 256 -77 0 -78 0 0 -345z"/>
<path d="M5800 796 l0 -346 183 0 c180 0 184 0 238 27 42 22 59 38 77 73 47
95 12 203 -80 241 l-30 12 36 19 c52 27 76 71 76 139 0 72 -27 115 -95 149
-47 23 -62 25 -227 28 l-178 4 0 -346z m309 223 c37 -13 51 -35 51 -79 0 -68
-37 -90 -156 -90 l-74 0 0 90 0 90 74 0 c40 0 87 -5 105 -11z m-10 -275 c47
-10 81 -46 81 -88 0 -77 -31 -96 -160 -96 l-90 0 0 88 c0 49 3 92 7 95 8 9
120 9 162 1z"/>
<path d="M9330 1065 l0 -65 -35 0 -35 0 0 -60 0 -60 35 0 35 0 0 -161 c0 -187
9 -218 71 -249 28 -15 59 -20 114 -20 l75 0 0 54 0 55 -52 3 c-72 4 -78 18
-78 185 l0 132 63 3 62 3 0 55 0 55 -62 3 -63 3 0 64 0 65 -65 0 -65 0 0 -65z"/>
<path d="M2440 802 c0 -191 1 -200 25 -248 31 -62 70 -92 140 -107 63 -13 128
0 175 33 36 26 40 25 40 -5 0 -24 2 -25 68 -25 l67 0 -2 273 -2 272 -63 0 -63
0 -5 -181 c-5 -189 -7 -196 -55 -236 -23 -20 -92 -24 -129 -6 -55 24 -61 47
-64 246 l-4 182 -64 0 -64 0 0 -198z"/>
<path d="M3107 993 c-4 -3 -7 -127 -7 -275 l0 -268 65 0 65 0 0 275 0 275 -58
0 c-32 0 -62 -3 -65 -7z"/>
<path d="M5133 988 c3 -7 53 -129 111 -271 l107 -258 -56 -126 c-30 -70 -55
-130 -55 -135 0 -5 32 -8 71 -6 l71 3 163 388 c90 213 166 394 169 402 4 12
-7 15 -68 15 l-73 0 -67 -182 c-38 -101 -72 -187 -75 -191 -4 -4 -39 77 -77
180 l-69 188 -79 3 c-61 2 -77 0 -73 -10z"/>
<path d="M6440 725 l0 -275 64 0 64 0 4 168 c3 184 8 200 64 227 18 8 48 15
68 15 l36 0 0 70 c0 65 -1 70 -22 70 -30 0 -107 -39 -121 -61 -18 -29 -27 -23
-27 21 l0 40 -65 0 -65 0 0 -275z"/>
<path d="M6937 974 c-138 -72 -180 -290 -83 -432 80 -115 252 -137 349 -45
l27 27 0 -37 0 -37 70 0 70 0 0 275 0 276 -67 -3 -68 -3 -3 -39 c-3 -36 -4
-37 -17 -19 -44 63 -191 83 -278 37z m251 -137 c32 -33 36 -43 40 -100 7 -101
-39 -165 -124 -175 -118 -13 -198 114 -146 231 28 64 71 89 140 84 45 -3 59
-9 90 -40z"/>
<path d="M7625 976 c-57 -26 -99 -70 -128 -135 -16 -36 -19 -60 -15 -135 3
-78 8 -99 32 -139 52 -91 140 -133 256 -125 72 6 131 31 171 75 28 29 59 84
59 103 0 6 -29 10 -74 10 -66 0 -75 -2 -81 -20 -10 -31 -49 -52 -99 -52 -90 0
-130 58 -124 178 4 85 24 121 82 143 50 19 111 1 134 -40 16 -28 20 -29 91
-29 l73 0 -7 28 c-14 59 -77 124 -143 148 -62 22 -169 17 -227 -10z"/>
<path d="M8805 976 c-105 -48 -150 -134 -143 -274 3 -74 9 -96 31 -135 49 -83
131 -127 237 -127 97 0 176 40 224 115 39 60 36 65 -42 65 -61 0 -69 -3 -95
-29 -68 -72 -188 -40 -216 57 l-10 32 205 0 204 0 0 48 c0 112 -51 201 -142
246 -71 36 -180 37 -253 2z m215 -122 c16 -16 32 -41 35 -56 l7 -28 -131 0
c-144 0 -148 2 -115 59 27 46 62 62 122 58 43 -3 59 -9 82 -33z"/>
</g>
</svg>
